# xmcd
#
# Track frame offsets:
#	150
#	15269
#	34064
#	52769
#	69506
#	82276
#	100108
#	115272
#	129797
#	142842
#	157481
#	173627
#
# Disc length: 2520 seconds
#
# Revision: 0
# Processed by: cddbd v1.4PL0 Copyright (c) Steve Scherf et al.
# Submitted via: EasyCDDAExtractor 4.5.0.2
#
DISCID=9209d60c
DTITLE=Dois a Um - Olha
DYEAR=2002
DGENRE=Sertanejo Romantico
TTITLE0=Gostosa
TTITLE1=Olha
TTITLE2=Mãe Lua
TTITLE3=Chique Demais
TTITLE4=Osso do Peito
TTITLE5=Meu Amor
TTITLE6=More Than Words
TTITLE7=24 Horas de Amor
TTITLE8=Larga de Frescura
TTITLE9=Uma pra mim, uma pra tu
TTITLE10=Rodeio
TTITLE11=Meu Mundo
EXTD=
EXTT0=
EXTT1=
EXTT2=
EXTT3=
EXTT4=
EXTT5=
EXTT6=
EXTT7=
EXTT8=
EXTT9=
EXTT10=
EXTT11=
PLAYORDER=
